<?xml version="1.0" encoding="UTF-8" standalone="no"?>
<!-- Created with Inkscape (http://www.inkscape.org/) -->

<svg
   xmlns:dc="http://purl.org/dc/elements/1.1/"
   xmlns:cc="http://creativecommons.org/ns#"
   xmlns:rdf="http://www.w3.org/1999/02/22-rdf-syntax-ns#"
   xmlns:svg="http://www.w3.org/2000/svg"
   xmlns="http://www.w3.org/2000/svg"
   xmlns:sodipodi="http://sodipodi.sourceforge.net/DTD/sodipodi-0.dtd"
   xmlns:inkscape="http://www.inkscape.org/namespaces/inkscape"
   width="16"
   height="16"
   id="svg3980"
   version="1.1"
   inkscape:version="0.48.4 r9939"
   sodipodi:docname="trash-can.svg"
   viewBox="0 0 16 16">
  <defs
     id="defs3982" />
  <sodipodi:namedview
     id="base"
     pagecolor="#ffffff"
     bordercolor="#666666"
     borderopacity="1.0"
     inkscape:pageopacity="0.0"
     inkscape:pageshadow="2"
     inkscape:zoom="44.8"
     inkscape:cx="14.681591"
     inkscape:cy="7.9237456"
     inkscape:document-units="px"
     inkscape:current-layer="layer1"
     showgrid="true"
     inkscape:window-width="1855"
     inkscape:window-height="1056"
     inkscape:window-x="65"
     inkscape:window-y="24"
     inkscape:window-maximized="1"
     inkscape:snap-bbox="true">
    <inkscape:grid
       type="xygrid"
       id="grid4518"
       empspacing="2"
       visible="true"
       enabled="true"
       snapvisiblegridlinesonly="true"
       spacingx="0.5px"
       spacingy="0.5px" />
  </sodipodi:namedview>
  <metadata
     id="metadata3985">
    <rdf:RDF>
      <cc:Work
         rdf:about="">
        <dc:format>image/svg+xml</dc:format>
        <dc:type
           rdf:resource="http://purl.org/dc/dcmitype/StillImage" />
        <dc:title />
      </cc:Work>
    </rdf:RDF>
  </metadata>
  <g
     inkscape:label="Layer 1"
     inkscape:groupmode="layer"
     id="layer1">
    <path
       style="fill:#000000;fill-opacity:1;stroke:none"
       d="M 7 0 C 6.4477152 0 6 0.4477152 6 1 L 3 1 C 2.4477152 1 2 1.4477152 2 2 L 2 3 L 3 3 L 13 3 L 14 3 L 14 2 C 14 1.4477152 13.552285 1 13 1 L 10 1 C 10 0.4477152 9.552285 0 9 0 L 7 0 z M 2 4 L 2 15 C 2 15.552284 2.4477152 16 3 16 L 13 16 C 13.552285 16 14 15.552284 14 15 L 14 4 L 2 4 z M 3.5 5 C 3.7761424 5 4 5.2238576 4 5.5 L 4 13.5 C 4 13.776142 3.7761424 14 3.5 14 C 3.2238576 14 3 13.776142 3 13.5 L 3 5.5 C 3 5.2238576 3.2238576 5 3.5 5 z M 6.5 5 C 6.7761424 5 7 5.2238576 7 5.5 L 7 13.5 C 7 13.776142 6.7761424 14 6.5 14 C 6.2238576 14 6 13.776142 6 13.5 L 6 5.5 C 6 5.2238576 6.2238576 5 6.5 5 z M 9.5 5 C 9.7761424 5 10 5.2238576 10 5.5 L 10 13.5 C 10 13.776142 9.7761424 14 9.5 14 C 9.2238576 14 9 13.776142 9 13.5 L 9 5.5 C 9 5.2238576 9.2238576 5 9.5 5 z M 12.5 5 C 12.776142 5 13 5.2238576 13 5.5 L 13 13.5 C 13 13.776142 12.776142 14 12.5 14 C 12.223858 14 12 13.776142 12 13.5 L 12 5.5 C 12 5.2238576 12.223858 5 12.5 5 z "
       id="rect3988" />
  </g>
</svg>
